# xmcd
#
# Track frame offsets:
#	150
#	1059
#	38071
#	68000
#	105158
#	140982
#	162091
#	185413
#	204522
#	221169
#
# Disc length: 3516 seconds
#
# Revision: 3
# Processed by: cddbd v1.5.1PL0 Copyright (c) Steve Scherf et al.
# Submitted via: audiograbber 1.83.01
#
DISCID=830dba0a
DTITLE=Jason Moran - The Bandwagon
DYEAR=2003
DGENRE=Jazz
TTITLE0=Intro (Abr.)
TTITLE1=Another One
TTITLE2=Intermezzo, Op. 118 No. 2
TTITLE3=Ringing My Phone (Straight Outta Istanbul)
TTITLE4=Out Front
TTITLE5=Gentle Shifts South (My Folks' Folks)
TTITLE6=Gangsterism On Stages
TTITLE7=Body and Soul
TTITLE8=Infospace
TTITLE9=Planet Rock
EXTD=YEAR: 2003
EXTT0=
EXTT1=
EXTT2=
EXTT3=
EXTT4=
EXTT5=
EXTT6=
EXTT7=
EXTT8=
EXTT9=
PLAYORDER=
